<svg data-v-0dd9719b="" version="1.0" xmlns="http://www.w3.org/2000/svg" xmlns:xlink="http://www.w3.org/1999/xlink" width="100%" height="100%" viewBox="0 0 340.000000 250.000000" preserveAspectRatio="xMidYMid meet" color-interpolation-filters="sRGB" style="margin: auto;"> <rect data-v-0dd9719b="" x="0" y="0" width="100%" height="100%" fill="#fff" fill-opacity="1" class="background"></rect> <rect data-v-0dd9719b="" x="0" y="0" width="100%" height="100%" fill="url(#watermark)" fill-opacity="1" class="watermarklayer"></rect> <g data-v-0dd9719b="" fill="#333" class="icon-text-wrapper icon-svg-group iconsvg" transform="translate(90.94000244140625,95.46575355529785)"><g class="iconsvg-imagesvg" transform="translate(0,0)"><g><rect fill="#333" fill-opacity="0" stroke-width="2" x="0" y="0" width="60" height="59.06848991405534" class="image-rect"></rect> <svg x="0" y="0" width="60" height="59.06848991405534" filtersec="colorsb4027149389" class="image-svg-svg primary" style="overflow: visible;"><svg xmlns="http://www.w3.org/2000/svg" viewBox="0.4385022521018982 -0.000009216904800268821 101.5615005493164 99.98497772216797"><path d="M69.3 59.41l-9.89 9.89L51 77.73 30.46 98.26A6 6 0 0 1 22 89.83L42.56 69.3 51 60.88l9.9-9.9zM102 24.28a6 6 0 0 1-1.75 4.21L77.72 51l-8.42-8.44 22.5-22.5a6 6 0 0 1 10.2 4.22z" fill="#0059cc"></path><path d="M83.64 6a5.94 5.94 0 0 1-1.74 4.21L41.08 51l-8.42-8.42 9.9-9.89L51 24.24 73.48 1.75A6 6 0 0 1 83.64 6zM32.66 59.41L12.13 79.93a6 6 0 0 1-8.42-8.42L24.24 51z" fill="#00dac7"></path><path d="M51 24.24l-8.42 8.43-22.5-22.5A6 6 0 0 1 24.28 0a5.89 5.89 0 0 1 4.2 1.75zM98.25 79.93a5.94 5.94 0 0 1-8.42 0L51 41.09l8.42-8.42 9.9 9.89 8.4 8.44 20.53 20.51a6 6 0 0 1 0 8.42z" fill="#00baec"></path><path d="M51 60.88l-8.44 8.42L1.74 28.49a6 6 0 0 1 8.43-8.43l22.49 22.5L41.08 51zM79.93 98.26a6 6 0 0 1-8.42 0L51 77.73l8.42-8.43 20.51 20.53a6 6 0 0 1 0 8.43z" fill="#00abd8"></path></svg></svg> <!----></g></g> <g transform="translate(67,3.9542465209960938)"><g data-gra="path-name" fill-rule="" class="tp-name iconsvg-namesvg"><g transform="scale(1)"><g><path d="M2.98-3.78L2.98-3.78Q2.98-6.22 2.87-8.66 2.76-11.11 2.63-13.57 2.51-16.03 2.4-18.52 2.29-21.01 2.29-23.58L2.29-23.58Q2.29-26.28 2.46-29.06 2.63-31.83 3.14-34.42 3.65-37.01 4.54-39.28 5.43-41.55 6.86-43.23 8.28-44.91 10.35-45.89 12.41-46.88 15.2-46.88L15.2-46.88Q17.87-46.88 19.84-46.04 21.8-45.2 23.18-43.74 24.57-42.28 25.44-40.31 26.31-38.34 26.8-36.05 27.29-33.77 27.49-31.29 27.68-28.82 27.68-26.37L27.68-26.37Q27.68-25.74 27.66-25.26 27.64-24.79 27.63-24.23 27.61-23.68 27.56-22.92 27.52-22.15 27.45-20.93 27.39-19.71 27.31-17.93 27.23-16.15 27.14-13.55 27.04-10.95 26.91-7.41 26.79-3.87 26.66 0.86L26.66 0.86 17.17 0.51Q17.71-3.11 18.14-6.74 18.57-10.38 18.85-13.52L18.85-13.52Q16.41-13.71 14.31-13.71L14.31-13.71Q13.23-13.71 12.28-13.68 11.33-13.65 10.6-13.58L10.6-13.58Q10.7-11.93 10.82-10.09 10.95-8.25 11.11-6.38 11.27-4.51 11.46-2.68 11.65-0.86 11.9 0.79L11.9 0.79 2.92 1.05Q2.98-0.13 2.98-1.35 2.98-2.57 2.98-3.78ZM10.22-20.28L10.22-20.28Q11.17-20.22 12.09-20.22 13.01-20.22 13.9-20.22L13.9-20.22Q17.3-20.22 19.36-20.41L19.36-20.41Q19.55-22.66 19.76-24.95 19.96-27.23 19.96-29.83L19.96-29.83Q19.96-35.32 18.84-38.2 17.71-41.07 15.52-41.07L15.52-41.07Q14.31-41.07 13.3-40.21 12.28-39.36 11.54-37.56 10.79-35.77 10.36-33.04 9.93-30.31 9.93-26.6L9.93-26.6Q9.93-25.3 10.01-23.82 10.09-22.34 10.22-20.28ZM32.31-35.29L40.56-35.17 40.37-32.56Q41.42-34.31 42.61-35.23 43.8-36.15 44.81-36.53 45.83-36.91 46.51-36.94 47.19-36.98 47.26-36.98L47.26-36.98Q49.61-36.98 51.35-35.9 53.1-34.82 54.24-32.77 55.38-30.72 55.94-27.79 56.49-24.85 56.49-21.14L56.49-21.14Q56.49-18.41 56.41-15.57 56.34-12.73 56.1-9.92 55.86-7.11 55.46-4.44 55.07-1.78 54.4 0.63L54.4 0.63 47-0.25Q47.73-4.03 48.15-7.3 48.56-10.57 48.75-13.01L48.75-13.01Q48.97-15.87 49-18.25L49-18.25Q49-21.26 48.81-23.5 48.62-25.74 48.13-27.22 47.64-28.69 46.78-29.42 45.93-30.15 44.59-30.15L44.59-30.15Q43.7-29.96 42.81-28.88L42.81-28.88Q42.05-27.96 41.2-25.95 40.34-23.93 39.7-20.28L39.7-20.28Q39.61-17.81 39.59-15.38 39.58-12.95 39.58-10.22L39.58-10.22Q39.58-7.9 39.58-5.24 39.58-2.57 39.64 0.79L39.64 0.79 32.44 0.63Q32.53-2.6 32.58-6.24 32.63-9.87 32.63-14.31L32.63-14.31Q32.63-18.73 32.56-23.87 32.5-29.01 32.31-35.29L32.31-35.29ZM80.39-35.48L80.81-28.98Q78.77-25.99 77.06-23.06 75.35-20.12 73.85-17.17 72.36-14.22 71.06-11.25 69.76-8.28 68.59-5.21L68.59-5.21Q71.63-5.36 74.71-5.65 77.79-5.94 80.87-6.38L80.87-6.38 81.06 1.11Q77.16 0.92 73.25 0.92L73.25 0.92Q69.89 0.92 66.52 1.05 63.16 1.17 59.73 1.43L59.73 1.43 59.54-4.67Q61.57-7.68 63.35-10.65 65.13-13.62 66.7-16.58 68.27-19.55 69.65-22.55 71.03-25.55 72.33-28.66L72.33-28.66Q69.19-28.6 66.29-28.25 63.38-27.9 60.18-27.29L60.18-27.29 59.79-34.91Q61.13-34.85 62.43-34.85 63.73-34.85 65.06-34.85L65.06-34.85Q68.94-34.85 72.68-34.99 76.43-35.13 80.39-35.48L80.39-35.48ZM93.41-44.53L93.41-44.53Q93.41-43.51 93.02-42.61 92.64-41.7 91.98-41.04 91.31-40.37 90.41-39.97 89.5-39.58 88.49-39.58L88.49-39.58Q87.47-39.58 86.57-39.97 85.66-40.37 85-41.04 84.33-41.7 83.93-42.61 83.54-43.51 83.54-44.53L83.54-44.53Q83.54-45.54 83.93-46.45 84.33-47.35 85-48.02 85.66-48.69 86.57-49.08 87.47-49.48 88.49-49.48L88.49-49.48Q89.5-49.48 90.41-49.08 91.31-48.69 91.98-48.02 92.64-47.35 93.02-46.45 93.41-45.54 93.41-44.53ZM84.04-34.79L93.41-34.91Q93.15-32.4 92.98-29.5 92.8-26.6 92.69-23.55 92.58-20.5 92.52-17.42 92.45-14.35 92.42-11.55 92.39-8.76 92.37-6.33 92.36-3.9 92.36-2.16L92.36-2.16 92.36 1.43 85.15 1.68Q85.22-0.51 85.22-2.57 85.22-4.63 85.22-6.7L85.22-6.7Q85.22-10.28 85.15-13.7 85.09-17.11 84.95-20.53 84.8-23.96 84.58-27.49 84.36-31.01 84.04-34.79L84.04-34.79Z" transform="translate(-2.2899999618530273, 49.47999954223633)"></path></g> <!----> <!----> <!----> <!----> <!----> <!----> <!----></g></g> <!----></g></g><defs v-gra="od"></defs></svg>